PathFileType	4	(X/Y/Z)	Patient4_TMGait_0pt8_01_right_48.trc.trc
DataRate	CameraRate	NumFrames	NumMarkers	Units	OrigDataRate	OrigDataStartFrame	OrigNumFrames
88.050314465409	88.050314465409	4	33	mm	88.050314465409	18	       141
Frame#	Time	Sacral			L.Shoulder			Chest			R.Shoulder			Neck			R.ASIS			L.ASIS			R.Thigh.Superior			R.Thigh.Lateral			R.Thigh.Inferior			R.Patella			L.Thigh.Superior			L.Thigh.Lateral			L.Thigh.Inferior			L.Patella			L.Shank.Superior			L.Shank.Lateral			L.Shank.Inferior			R.Shank.Superior			R.Shank.Lateral			R.Shank.Inferior			R.Heel			R.Midfoot.Superior			R.Midfoot.Lateral			R.Toe			L.Heel			L.Midfoot.Lateral			L.Midfoot.Superior			L.Toe			L.Elbow			L.Wrist			R.Elbow			R.Wrist			
		X1	Y1	Z1	X2	Y2	Z2	X3	Y3	Z3	X4	Y4	Z4	X5	Y5	Z5	X6	Y6	Z6	X7	Y7	Z7	X8	Y8	Z8	X9	Y9	Z9	X10	Y10	Z10	X11	Y11	Z11	X12	Y12	Z12	X13	Y13	Z13	X14	Y14	Z14	X15	Y15	Z15	X16	Y16	Z16	X17	Y17	Z17	X18	Y18	Z18	X19	Y19	Z19	X20	Y20	Z20	X21	Y21	Z21	X22	Y22	Z22	X23	Y23	Z23	X24	Y24	Z24	X25	Y25	Z25	X26	Y26	Z26	X27	Y27	Z27	X28	Y28	Z28	X29	Y29	Z29	X30	Y30	Z30	X31	Y31	Z31	X32	Y32	Z32	X33	Y33	Z33	

18	54.223071428571	887.738536775357	997.988050587612	444.019380792382	1079.751870047339	1432.165695346653	284.261575963695	1169.582804444630	1357.077142843603	450.140326463383	1072.468383070947	1423.918080974529	619.895347566432	1049.124507900533	1486.638113126254	439.260298539078	1110.358358843086	933.430358770190	571.711191825801	1106.952725610452	957.871437700350	297.218666931176	1190.479369787944	769.338180306436	545.961526348950	1155.310288769079	647.544959383760	627.101338410337	1248.473660422188	614.384213839208	549.669623040109	1287.380059275449	532.296534299200	569.290033684836	1102.250999246546	728.114074035763	320.524996549502	979.199623641785	637.200847865173	261.181636285653	1038.207292670875	541.240948666063	323.065538636297	1022.454653756992	476.485100882069	332.765813341905	989.018598155908	411.959850112382	327.309973524223	885.797570840262	306.440315274851	282.739760410161	928.995702476005	191.984082042695	355.686460437328	1272.301855305501	443.513775893738	580.822866808126	1220.983745418070	330.513959382020	647.222340158195	1292.589142823084	244.451902289649	599.492358412352	1204.451934814894	54.229376986052	574.515926157674	1363.362299882511	133.428011645156	618.206875716365	1284.964297703178	58.559027065904	652.322656624365	1486.586035455970	101.773353486799	653.378146982176	791.978619271581	40.856738583301	408.038864066693	862.834702834492	36.059657212634	325.310060417401	948.088508292070	96.200768051179	348.228834212995	1074.380462061448	42.443904337259	316.162625495926	1160.039360527657	1111.283562488645	126.649676931779	1412.893909182357	1067.463919603041	152.619915253859	941.010521858127	1099.614270913273	719.647063318415	920.960522130855	841.042624874447	744.029438190814	
19	54.234428571429	889.240395859771	996.080117019862	446.248293812572	1079.735841337074	1430.539211269388	286.160024501409	1170.446104532189	1355.429330566776	451.542262434155	1073.885292521183	1422.190794445432	621.672211481670	1049.650899999732	1484.700474559129	441.106520642910	1112.691036987128	930.999263886750	572.656219868104	1107.655326013715	956.109877913357	298.329315846176	1191.006298868618	765.135674724414	546.701329979392	1154.329774372921	643.762930361263	627.959785342493	1246.569721299069	609.683613444103	549.847259253789	1284.772812999210	528.940100439681	568.858458859081	1100.785225353343	726.131229875141	321.046455095103	976.392365900728	636.511885368802	261.941312462694	1034.537803343102	539.815557968594	323.519501142015	1018.146923354366	474.865501113120	333.078397576488	983.790162581542	410.866815587112	327.636090153058	879.121223492596	306.681999749351	283.169874733018	921.133622139012	191.600496066415	355.771934003763	1271.682853186363	440.382255582150	581.107221797739	1222.893366434627	326.166103549835	647.477112683284	1296.561387433116	241.790109295167	599.689575060322	1212.913031110797	49.543781317033	574.760344385756	1370.105557509880	132.263620870073	618.462247285634	1293.191107804564	55.975248700306	652.723142751973	1494.009376759414	103.548860934362	654.044182614467	782.900995057888	41.136777450601	407.949879497911	853.771528182375	36.167399897092	325.311589976188	939.099434326057	96.194662212932	348.197858686670	1065.269270023757	42.188256822131	316.085693094628	1161.534472462899	1110.962115351055	127.485476193104	1415.349862324606	1078.696813608597	154.893026594920	933.108362099325	1103.326968049060	721.617584172166	905.629240514262	845.584514956638	746.005917387197	
20	54.245785714286	890.911919831858	994.035653798552	448.829643313903	1079.631405617150	1428.810750238314	288.152441076942	1171.310676646496	1353.800385162144	453.042819044046	1075.325921762816	1420.483960938917	623.572992744842	1050.178260896798	1482.719523147599	443.084583759769	1115.199286128448	928.520372412501	573.744199648246	1108.482651163285	954.273661035211	299.571420601433	1192.045538536137	761.197347736754	547.390323226939	1153.943910339630	640.166753939002	628.638176659426	1245.225545166071	605.281384642142	549.868739687001	1282.587502738518	525.476314355986	568.457836295946	1099.806586881962	724.155503329269	321.764821812182	974.201279575764	635.722441623680	262.942600395691	1031.578512475802	538.320090029826	324.178308872589	1014.543870712215	473.094184312919	333.642685783914	979.187431887341	409.602980372975	328.156563339405	872.931566143992	306.956275744481	283.708658937131	913.479161293619	191.163065835078	355.926655842869	1270.864595961082	436.961810343989	581.331455956699	1223.536107697839	321.955227969040	647.322902970050	1298.611634419289	238.780177435624	599.580025654158	1217.776189064471	45.878682136063	574.290748087424	1373.886479420251	130.168092593290	618.392085712161	1297.644371577893	53.415722539247	652.566358367591	1497.968253378180	103.001121586428	654.511554775248	773.832610565693	41.549305922582	407.819448676969	844.739590838957	36.323195113447	325.287760764036	930.163175258742	96.206946824357	348.160056774712	1056.190377466612	41.870383335563	316.000698321371	1162.514825894084	1110.327641601771	128.476731845309	1416.730499653488	1088.924891375307	157.168177447352	926.280335817298	1106.895609261166	723.714005087906	891.912223329376	850.050306396292	747.782707879464	
21	54.257142857143	892.740160182225	991.928704393506	451.736209995776	1079.474470229400	1427.026284114421	290.231104790373	1172.192303248466	1352.238156751996	454.647966835788	1076.802831552974	1418.847886232907	625.598812420671	1050.726016473115	1480.758086366056	445.188921434344	1117.846849789590	926.069081438080	574.992200443639	1109.457826834894	952.419861038334	300.943175574483	1193.581873129693	757.616641312433	548.078781939591	1154.097530333117	636.827910673230	629.145047527009	1244.494311676856	601.308249833933	549.827547559425	1280.886468871266	522.006125276898	568.122426921930	1099.321493148546	722.225712552103	322.663492334746	972.607894882648	634.873233042028	264.192249590190	1029.327781323292	536.782732702413	325.021505818271	1011.653954066490	471.203503396405	334.422777977624	975.203652634860	408.207769532099	328.852309184791	867.216578377859	307.312329308394	284.357129134705	906.042041217461	190.716472441774	356.128075010883	1269.942763266253	433.356909236370	581.500949948659	1223.096969397651	317.936326328146	646.869349968330	1298.919927893008	235.455652444546	599.234327277008	1219.186123323351	43.185713615795	573.311170567056	1374.940735642495	127.151372159602	618.044708609760	1298.582015006028	50.840279087822	651.991694085152	1498.799730120561	100.124347562688	654.713210197221	764.771951900525	42.152001635262	407.638001566563	835.739235881752	36.545392215403	325.231453739124	921.299083422939	96.248823613549	348.093985413638	1047.148096764333	41.495939655135	315.904811383993	1162.946174517540	1109.377800927960	129.637887459568	1417.112045597391	1098.041767198214	159.414827855450	920.673242872409	1110.160864633622	725.897560359656	879.833423382997	854.284175065291	749.418712060094	
